<svg id="Layer_1" data-name="Layer 1" xmlns="http://www.w3.org/2000/svg" viewBox="0 0 645.9677 463.9768"><defs><style>.cls-1,.cls-4{fill:none;stroke-miterlimit:10;stroke-width:9px;}.cls-1{stroke:#00305b;}.cls-2{fill:#00305b;}.cls-3{fill:#f7a600;}.cls-4{stroke:#fff;}.cls-5{fill:#fff;}</style></defs><ellipse class="cls-1" cx="327.5837" cy="171.2151" rx="95.3412" ry="227.8302" transform="translate(12.2187 364.0119) rotate(-59.0336)"/><path class="cls-2" d="M15.71,389.1968a33.3816,33.3816,0,0,1,12.9878-13.5322,37.5806,37.5806,0,0,1,19.04-4.76q13.5983,0,22.5078,6.46,8.9063,6.4614,12.0362,18.4277H65.5532a17.6942,17.6942,0,0,0-6.5278-8.7031,19.284,19.284,0,0,0-11.2881-3.1279q-9.5206,0-15.164,6.7314t-5.6441,18.8359q0,12.107,5.6441,18.9043,5.6418,6.8013,15.164,6.8,13.4642,0,17.8159-11.832H82.2813a33.4885,33.4885,0,0,1-12.24,18.1563q-8.9765,6.7323-22.3042,6.7314a37.1487,37.1487,0,0,1-19.04-4.8271A33.83,33.83,0,0,1,15.71,429.8609a46.4,46.4,0,0,1,0-40.6641Z"/><path class="cls-2" d="M143.4121,374.5767a26.14,26.14,0,0,1,10.6084,10.88q3.876,7.2114,3.876,17.4082v44.2H142.5283V405.1773q0-10.0635-5.0317-15.4365-5.0333-5.37-13.7363-5.3721-8.7048,0-13.8037,5.3721-5.1006,5.3745-5.1,15.4365V447.065H89.3526v-100.64h15.5039v34.4073a26.0054,26.0054,0,0,1,9.9961-7.3438,33.4434,33.4434,0,0,1,13.26-2.584A31.4343,31.4343,0,0,1,143.4121,374.5767Z"/><path class="cls-2" d="M168.7066,389.2652a34.1836,34.1836,0,0,1,30.6679-18.36,32.7255,32.7255,0,0,1,15.4361,3.4678,31.3555,31.3555,0,0,1,10.54,8.6367v-10.88h15.64V447.065h-15.64V435.9126a30.812,30.812,0,0,1-10.7441,8.8409,34.7743,34.7743,0,0,1-33.1841-1.4288,35.1842,35.1842,0,0,1-12.7158-13.872,42.6629,42.6629,0,0,1-4.6919-20.1953A41.472,41.472,0,0,1,168.7066,389.2652Zm53.4477,6.8a22.4519,22.4519,0,0,0-8.3637-8.7041,21.9035,21.9035,0,0,0-11.1524-2.9922,22.28,22.28,0,0,0-11.1518,2.9238,22.0552,22.0552,0,0,0-8.3638,8.5684,26.7468,26.7468,0,0,0-3.1963,13.3965,27.9018,27.9018,0,0,0,3.1963,13.6,22.5281,22.5281,0,0,0,8.4316,8.9082,21.6221,21.6221,0,0,0,11.084,3.06,21.8758,21.8758,0,0,0,11.1524-2.9921,22.3138,22.3138,0,0,0,8.3637-8.7715,27.5357,27.5357,0,0,0,3.1963-13.5323A27.1465,27.1465,0,0,0,222.1543,396.065Z"/><path class="cls-2" d="M271.0454,384.7769v41.4805q0,4.2158,1.9717,6.0517t6.7324,1.836h9.52v12.92h-12.24q-10.4743,0-16.0478-4.8965-5.5782-4.8955-5.5762-15.9111V384.7769h-8.84V372.1294h8.84V353.4966h15.64v18.6328H289.27v12.6475Z"/><path class="cls-2" d="M310.6206,346.4253v100.64H295.1167v-100.64Z"/><path class="cls-2" d="M322.1123,389.2652a34.1821,34.1821,0,0,1,30.668-18.36,32.7213,32.7213,0,0,1,15.4355,3.4678,31.3568,31.3568,0,0,1,10.54,8.6367v-10.88h15.64V447.065h-15.64V435.9126a30.8087,30.8087,0,0,1-10.7442,8.8409,34.7732,34.7732,0,0,1-33.1835-1.4288,35.1851,35.1851,0,0,1-12.7159-13.872,42.6584,42.6584,0,0,1-4.6924-20.1953A41.4676,41.4676,0,0,1,322.1123,389.2652Zm53.4473,6.8a22.4474,22.4474,0,0,0-8.3633-8.7041,21.9058,21.9058,0,0,0-11.1523-2.9922,22.282,22.282,0,0,0-11.1524,2.9238,22.0581,22.0581,0,0,0-8.3633,8.5684,26.7426,26.7426,0,0,0-3.1962,13.3965,27.8974,27.8974,0,0,0,3.1962,13.6,22.529,22.529,0,0,0,8.4317,8.9082,21.6205,21.6205,0,0,0,11.084,3.06,21.878,21.878,0,0,0,11.1523-2.9921,22.3094,22.3094,0,0,0,8.3633-8.7715,27.53,27.53,0,0,0,3.1963-13.5323A27.1412,27.1412,0,0,0,375.56,396.065Z"/><path class="cls-2" d="M460.0147,374.5767a26.13,26.13,0,0,1,10.9482,10.88q3.9434,7.2114,3.9444,17.4082v44.2H459.5391V405.1773q0-10.0635-5.0322-15.4365-5.0332-5.37-13.7354-5.3721-8.7055,0-13.8047,5.3721-5.1006,5.3745-5.1,15.4365V447.065H406.3633V372.1294h15.5039v8.5674a25.6825,25.6825,0,0,1,9.7236-7.208,31.1178,31.1178,0,0,1,12.58-2.584A33.6153,33.6153,0,0,1,460.0147,374.5767Z"/><path class="cls-2" d="M504.2813,384.7769v41.4805q0,4.2158,1.9717,6.0517,1.97,1.8354,6.7324,1.836h9.5195v12.92H510.2657q-10.4751,0-16.0489-4.8965-5.578-4.8955-5.5752-15.9111V384.7769h-8.8408V372.1294h8.8408V353.4966h15.64v18.6328h18.2236v12.6475Z"/><path class="cls-2" d="M543.8565,372.1294V447.065H528.3526V372.1294Z"/><path class="cls-2" d="M567.18,445.0933a27.8169,27.8169,0,0,1-11.084-8.7041,21.6883,21.6883,0,0,1-4.3515-12.3086H567.792a10.935,10.935,0,0,0,4.5557,7.9561,16.5348,16.5348,0,0,0,10.4043,3.1962q6.5288,0,10.1318-2.5156a7.5943,7.5943,0,0,0,3.6045-6.46,6.6382,6.6382,0,0,0-4.0127-6.2569,75.2925,75.2925,0,0,0-12.7158-4.4873,122.4207,122.4207,0,0,1-13.7354-4.4883,24.0636,24.0636,0,0,1-9.1806-6.664q-3.876-4.4883-3.876-11.8321a18.4521,18.4521,0,0,1,3.5361-10.9482,23.5327,23.5327,0,0,1,10.1319-7.8193,37.8484,37.8484,0,0,1,15.164-2.8565q12.7822,0,20.6045,6.46,7.8179,6.4614,8.3633,17.6123H595.2637a11.0458,11.0458,0,0,0-4.08-8.0244q-3.6708-2.99-9.9277-2.9912-6.12,0-9.3838,2.3115a7.1624,7.1624,0,0,0-3.2637,6.12,6.6223,6.6223,0,0,0,2.1758,5.0322,15.4447,15.4447,0,0,0,5.3037,3.1953q3.1275,1.1573,9.2481,2.9248a100.7251,100.7251,0,0,1,13.3964,4.42,24.9726,24.9726,0,0,1,9.044,6.5957q3.8057,4.3534,3.9434,11.56a19.3838,19.3838,0,0,1-3.5362,11.4248,23.4621,23.4621,0,0,1-9.9951,7.8877,37.2508,37.2508,0,0,1-15.1641,2.8555A37.7761,37.7761,0,0,1,567.18,445.0933Z"/><path class="cls-2" d="M619.1992,445.1607a9.9287,9.9287,0,0,1,7.0723-17,9.4409,9.4409,0,0,1,6.9356,2.8564,10.1823,10.1823,0,0,1,0,14.1436,9.4409,9.4409,0,0,1-6.9356,2.8564A9.6038,9.6038,0,0,1,619.1992,445.1607Z"/><path class="cls-3" d="M526.5282,356.6346l7.2984,9.046a1.8062,1.8062,0,0,0,2.5236.277l9.0622-7.3031a1.7658,1.7658,0,0,0,.2656-2.5028l-7.3031-9.0622a1.7845,1.7845,0,0,0-2.519-.2608l-9.0622,7.3031a1.7846,1.7846,0,0,0-.2608,2.519"/><path class="cls-4" d="M135.3234,45.5685C162.4165.418,271.8443,16.3,379.7372,81.0429s173.3941,153.8283,146.301,198.9788"/><circle class="cls-2" cx="326.6172" cy="167.0512" r="139.1968"/><path class="cls-2" d="M221.64,329.3532,289.2284,292.39a4.9826,4.9826,0,0,0,.396-8.5019L231.0087,244.34a4.9826,4.9826,0,0,0-7.7354,3.55l-8.9726,76.5112A4.9826,4.9826,0,0,0,221.64,329.3532Z"/><path class="cls-5" d="M314.5865,184.7773c29.0548,19.6729,45.5292,50.5143,46.7574,81.2746A95.5122,95.5122,0,0,0,221.76,171.5731c29.0227-10.2915,63.7682-6.4522,92.8265,13.2042"/><path class="cls-3" d="M285.814,152.6526a1.7714,1.7714,0,0,0,2.0857,1.4086l11.4291-2.1988a1.7844,1.7844,0,0,0,1.412-2.1022l-2.1988-11.4291a1.8063,1.8063,0,0,0-2.0988-1.4285l-11.4291,2.1988a1.8123,1.8123,0,0,0-1.4285,2.0988l2.2021,11.4126Z"/><path class="cls-3" d="M353.3648,123.7293a3.2972,3.2972,0,0,0,3.8683,2.6173l21.088-4.0723a3.2912,3.2912,0,0,0,2.6173-3.8683l-4.0557-21.0846a3.32,3.32,0,0,0-3.8683-2.6173L351.91,98.7729a3.3255,3.3255,0,0,0-2.6173,3.8683Z"/><path class="cls-3" d="M319.8271,137.9128a2.4867,2.4867,0,0,0,2.9,1.9712l15.82-3.0533a2.4809,2.4809,0,0,0,1.9712-2.9l-3.0368-15.8167a2.4951,2.4951,0,0,0-2.8995-1.9713l-15.82,3.0534a2.495,2.495,0,0,0-1.9712,2.9l3.0533,15.82Z"/><path class="cls-3" d="M350.5767,144.959l3.0534,15.82A2.4808,2.4808,0,0,0,356.53,162.75l15.82-3.0533a2.4873,2.4873,0,0,0,1.9547-2.9029l-3.0369-15.8168a2.4872,2.4872,0,0,0-2.9029-1.9547l-15.82,3.0533a2.473,2.473,0,0,0-1.9547,2.9029"/><path class="cls-3" d="M350.7926,186.6964l2.2022,11.4126a1.8063,1.8063,0,0,0,2.0988,1.4285l11.4291-2.1988a1.7657,1.7657,0,0,0,1.4086-2.0857l-2.1987-11.4291a1.7845,1.7845,0,0,0-2.1023-1.412l-11.4291,2.1988a1.7843,1.7843,0,0,0-1.4119,2.1022"/><path class="cls-4" d="M526.0382,280.0217c-27.0931,45.15-136.5209,29.268-244.4138-35.4744S108.23,90.719,135.3234,45.5685"/><path class="cls-4" d="M482.6784,162.7925c41.6747,45.1052,60.0167,89.4705,43.36,117.2292-27.0931,45.15-136.5209,29.268-244.4138-35.4744S108.23,90.719,135.3234,45.5685c16.42-27.3641,63.083-32.31,121.3178-17.5475"/></svg>